# AST/ASF file generated using VICON BodyLanguage
# -----------------------------------------------
:version 1.10
:name VICON
:units
  mass 1.0
  length 0.45
  angle deg
:documentation
   .ast/.asf automatically generated from VICON data using
   VICON BodyBuilder and BodyLanguage model FoxedUp or BRILLIANT.MOD
:root
   order TX TY TZ RX RY RZ
   axis XYZ
   position 0 0 0  
   orientation 0 0 0 
:bonedata
  begin
     id 1 
     name lhipjoint
     direction 0.635376 -0.686425 0.353719 
     length 2.47244 
     axis 0 0 0  XYZ
  end
  begin
     id 2 
     name lfemur
     direction 0.34202 -0.939693 0  
     length 7.25268  
     axis 0 0 20  XYZ
    dof rx ry rz
    limits (-160.0 20.0)
           (-70.0 70.0)
           (-60.0 70.0)
  end
  begin
     id 3 
     name ltibia
     direction 0.34202 -0.939693 0   
     length 7.6767   
     axis 0 0 20   XYZ
    dof rx
    limits (-10.0 170.0)
  end
  begin
     id 4 
     name lfoot
     direction 0.0803374 -0.220725 0.972022   
     length 2.22945   
     axis -90 7.62852e-016 20   XYZ
    dof rx rz
    limits (-45.0 90.0)
           (-70.0 20.0)
  end
  begin
     id 5 
     name ltoes
     direction 1.53579e-011 -4.21994e-011 1   
     length 1.11848   
     axis -90 7.62852e-016 20   XYZ
    dof rx
    limits (-90.0 20.0)
  end
  begin
     id 6 
     name rhipjoint
     direction -0.664428 -0.664335 0.342336   
     length 2.55466  
     axis 0 0 0  XYZ 
  end
  begin
     id 7 
     name rfemur
     direction -0.34202 -0.939693 0   
     length 6.83172   
     axis 0 0 -20   XYZ
    dof rx ry rz
    limits (-160.0 20.0)
           (-70.0 70.0)
           (-70.0 60.0)
  end
  begin
     id 8 
     name rtibia
     direction -0.34202 -0.939693 0   
     length 7.62692   
     axis 0 0 -20   XYZ
    dof rx
    limits (-10.0 170.0)
 end
 begin
     id 9 
     name rfoot
     direction -0.0949276 -0.260811 0.960711   
     length 2.19684  
     axis -90 -7.62852e-016 -20   XYZ
    dof rx rz
    limits (-45.0 90.0)
           (-20.0 70.0)
  end
  begin
     id 10 
     name rtoes
     direction -1.53543e-011 -4.2183e-011 1   
     length 1.09848   
     axis -90 -7.62852e-016 -20   XYZ
    dof rx
    limits (-90.0 20.0)
  end
  begin
     id 11 
     name lowerback
     direction 0.0118782 0.999815 -0.0151555   
     length 2.15772   
     axis 0 0 0   XYZ
    dof rx ry rz
    limits (-20.0 45.0)
           (-30.0 30.0)
           (-30.0 30.0)
  end
  begin
     id 12 
     name upperback
     direction 0.00130825 0.999065 0.0432113   
     length 2.14863   
     axis 0 0 0   XYZ
    dof rx ry rz
    limits (-20.0 45.0)
           (-30.0 30.0)
           (-30.0 30.0)
  end
  begin
     id 13 
     name thorax
     direction -0.00347005 0.998773 0.0494011   
     length 2.14936   
     axis 0 0 0   XYZ
    dof rx ry rz
    limits (-20.0 45.0)
           (-30.0 30.0)
           (-30.0 30.0)
  end
  begin
     id 14 
     name lowerneck
     direction -0.0262159 0.99424 0.103921   
     length 1.69373   
     axis 0 0 0   XYZ
    dof rx ry rz
    limits (-20.0 45.0)
           (-30.0 30.0)
           (-30.0 30.0)
  end
  begin
     id 15 
     name upperneck
     direction 0.0353511 0.977394 -0.20845   
     length 1.70857   
     axis 0 0 0   XYZ
    dof rx ry rz
    limits (-20.0 45.0)
           (-30.0 30.0)
           (-30.0 30.0)
  end
  begin
     id 16
     name head
     direction 0.0139214 0.996594 -0.0812836  
     length 1.72777  
     axis 0 0 0   XYZ
    dof rx ry rz
    limits (-20.0 45.0)
           (-30.0 30.0)
           (-30.0 30.0)
  end
  begin
     id 17 
     name lclavicle
     direction 0.841247 0.537205 -0.0609508  
     length 3.55371  
     axis 0 0 0   XYZ
    dof ry rz
    limits (-20.0 10.0)
           (0.0 20.0)
  end
  begin
     id 18 
     name lhumerus
     direction 1 -4.48964e-011 1.60116e-018   
     length 4.91377   
     axis -180 -30 -90   XYZ
    dof rx ry rz
    limits (-60.0 90.0)
           (-90.0 90.0)
           (-90.0 90.0)
  end
  begin
     id 19
     name lradius
     direction 1 -4.48989e-011 -8.93847e-027   
     length 3.00291   
     axis -180 -30 -90   XYZ
    dof rx
    limits (-10.0 170.0)
  end
  begin
     id 20
     name lwrist
     direction 1 -4.48932e-011 -7.31504e-027   
     length 1.50145   
     axis 5.74121e-015 90 90   XYZ
    dof ry
    limits (-180.0 0.0)
 end
  begin
     id 21 
     name lhand
     direction 1 -4.48971e-011 -1.46301e-026   
     length 0.450922   
     axis 9.33524e-015 90 90   XYZ
    dof rx rz
    limits (-90.0 90.0)
           (-45.0 45.0)
  end
  begin
     id 22 
     name lfingers
     direction 1 -4.49039e-011 -2.92602e-026   
     length 0.363545   
     axis 1.86705e-014 90 90   XYZ
    dof rx
    limits (0.0 90.0)
  end
  begin
     id 23
     name lthumb
     direction 0.707107 -6.34941e-011 0.707107   
     length 0.52198   
     axis -90 45 2.85299e-015   XYZ
    dof rx rz
    limits (-45.0 45.0)
           (-45.0 45.0)
  end
  begin
     id 24 
     name rclavicle
     direction -0.825079 0.56158 -0.0622297   
     length 3.39909  
     axis 0 0 0   XYZ 
    dof ry rz
    limits (-10.0 20.0)
           (-20.0 0.0)
  end
  begin
     id 25 
     name rhumerus
     direction -1 -4.48965e-011 1.61691e-027  
     length 4.86725   
     axis -180 30 90   XYZ
    dof rx ry rz
    limits (-90.0 60.0)
           (-90.0 90.0)
           (-90.0 90.0)
  end
  begin
     id 26 
     name rradius
     direction -1 -4.48964e-011 -2.25776e-027   
     length 3.17144   
     axis -180 30 90   XYZ
    dof rx
    limits (-10.0 170.0)
  end
  begin
     id 27 
     name rwrist
     direction -1 -4.48961e-011 -7.31504e-027   
     length 1.58572   
     axis 5.74121e-015 -90 -90   XYZ
    dof ry
    limits (-180.0 0.0)
  end
  begin
     id 28
     name rhand
     direction -1 -4.49013e-011 -1.46301e-026   
     length 0.419368   
     axis 9.33524e-015 -90 -90   XYZ
    dof rx rz
    limits (-90.0 90.0)
           (-45.0 45.0)
  end
  begin
     id 29
     name rfingers
     direction -1 -4.489e-011 -2.92602e-026   
     length 0.338105   
     axis 1.86705e-014 -90 -90   XYZ
    dof rx
    limits (0.0 90.0)
  end
  begin
     id 30
     name rthumb
     direction -0.707107 -6.35022e-011 0.707107   
     length 0.485453   
     axis -90 -45 -2.85299e-015   XYZ
    dof rx rz
    limits (-45.0 45.0)
           (-45.0 45.0)
  end
:hierarchy
  begin
    root lhipjoint rhipjoint lowerback
    lhipjoint lfemur
    lfemur ltibia
    ltibia lfoot
    lfoot ltoes
    rhipjoint rfemur
    rfemur rtibia
    rtibia rfoot
    rfoot rtoes
    lowerback upperback
    upperback thorax
    thorax lowerneck lclavicle rclavicle
    lowerneck upperneck
    upperneck head
    lclavicle lhumerus
    lhumerus lradius
    lradius lwrist
    lwrist lhand lthumb
    lhand lfingers
    rclavicle rhumerus
    rhumerus rradius
    rradius rwrist
    rwrist rhand rthumb
    rhand rfingers
  end

#!OML:ASF H:\Swim 2\Project 1\Capture day 1\Session 1\male.ASF
:FULLY-SPECIFIED
:DEGREES
823
root 0.533891 14.9216 11.1725 104.674 23.9834 -3.43812
lowerback -13.964 6.00832 18.4886
upperback -10.3895 6.38305 -11.2173
thorax 0.00227832 2.49825 -22.1513
lowerneck -14.1596 -0.424838 10.2943
upperneck 37.4807 -2.63078 -1.58829
head 15.4309 0.227269 -2.91353
rclavicle 1.86858e-014 9.93923e-016
rhumerus 79.0226 -27.0195 -29.5126
rradius 26.2012
rwrist -1.49809
rhand -13.7446 -1.71667
rfingers 7.12502
rthumb 12.3753 -31.3304
lclavicle 1.86858e-014 9.93923e-016
lhumerus -512.914 -78.3414 550.272
lradius 44.5848
lwrist 56.7
lhand -35.1884 -3.4023
lfingers 7.12502
lthumb -8.32657 26.4136
rfemur -52.4179 9.43043 17.3364
rtibia 54.1217
rfoot 44.6505 8.83523
rtoes 26.4862
lfemur -52.2432 0.857889 -25.0926
ltibia 40.4128
lfoot -19.0134 12.6813
ltoes -21.8625
824
root 0.567671 14.9169 11.1768 104.224 23.7999 -4.36078
lowerback -13.8031 6.05385 18.1495
upperback -10.3113 6.50162 -11.1666
thorax 0.028772 2.58487 -21.8509
lowerneck -14.1294 -0.341979 10.595
upperneck 37.4061 -2.62617 -1.54351
head 15.3908 0.26702 -2.94523
rclavicle -5.96354e-015 -3.63279e-014
rhumerus 79.3799 -27.0864 -30.3683
rradius 25.8715
rwrist -1.06886
rhand -14.3273 -2.20346
rfingers 7.12502
rthumb 11.8135 -31.8503
lclavicle -5.96354e-015 -3.63279e-014
lhumerus -507.031 -76.3979 543.714
lradius 44.775
lwrist 57.2111
lhand -34.8068 -3.13197
lfingers 7.12502
lthumb -7.95833 26.6982
rfemur -52.6031 9.1812 17.5178
rtibia 53.3267
rfoot 44.136 8.5524
rtoes 26.1048
lfemur -51.9875 0.667774 -24.8095
ltibia 40.5394
lfoot -18.9953 12.2818
ltoes -21.9543
825
root 0.597285 14.9118 11.179 103.808 23.5833 -5.21022
lowerback -13.656 6.09251 17.7818
upperback -10.2373 6.61169 -11.1461
thorax 0.0542517 2.66718 -21.5751
lowerneck -14.096 -0.272439 10.8597
upperneck 37.3509 -2.63101 -1.4879
head 15.3594 0.300844 -2.96775
rclavicle -3.22031e-014 -2.87244e-014
rhumerus 79.6673 -27.1701 -31.1714
rradius 25.5355
rwrist -0.557109
rhand -14.8198 -2.66414
rfingers 7.12502
rthumb 11.3386 -32.3376
lclavicle -3.22031e-014 -2.87244e-014
lhumerus -503.21 -74.4297 539.23
lradius 45.0041
lwrist 57.6848
lhand -34.2434 -3.2901
lfingers 7.12502
lthumb -7.41449 26.56
rfemur -52.8965 8.97016 17.6458
rtibia 52.4328
rfoot 43.4293 8.09427
rtoes 25.7125
lfemur -51.6625 0.608392 -24.6927
ltibia 40.912
lfoot -18.9327 11.6394
ltoes -22.0182
826
root 0.623111 14.9065 11.1777 103.439 23.3469 -5.97626
lowerback -13.5238 6.13014 17.4073
upperback -10.1739 6.71899 -11.1517
thorax 0.0764164 2.74676 -21.3301
lowerneck -14.0593 -0.217891 11.0592
upperneck 37.312 -2.64272 -1.41068
head 15.3355 0.327281 -2.97094
rclavicle -3.53837e-014 1.36664e-014
rhumerus 79.8967 -27.2732 -31.9177
rradius 25.1975
rwrist -0.0101971
rhand -15.1787 -3.01441
rfingers 7.12502
rthumb 10.9924 -32.7066
lclavicle -3.53837e-014 1.36664e-014
lhumerus -500.802 -72.495 536.182
lradius 45.253
lwrist 57.9795
lhand -33.5872 -3.8665
lfingers 7.12502
lthumb -6.7811 26.0049
rfemur -53.3062 8.81534 17.7122
rtibia 51.449
rfoot 42.6076 7.52092
rtoes 25.4001
lfemur -51.2564 0.656423 -24.7192
ltibia 41.4722
lfoot -18.8312 10.8569
ltoes -22.0112
827
root 0.647676 14.9016 11.1753 103.108 23.1205 -6.63507
lowerback -13.3837 6.16864 17.0682
upperback -10.1206 6.82537 -11.1714
thorax 0.0863756 2.82214 -21.1282
lowerneck -14.0205 -0.182146 11.1848
upperneck 37.2993 -2.6573 -1.33079
head 15.3236 0.345134 -2.96096
rclavicle 3.598e-014 -3.75703e-014
rhumerus 80.092 -27.3868 -32.6288
rradius 24.8557
rwrist 0.564034
rhand -15.4019 -3.22301
rfingers 7.12502
rthumb 10.7771 -32.9265
lclavicle 3.598e-014 -3.75703e-014
lhumerus -499.435 -70.5948 534.215
lradius 45.5029
lwrist 57.9413
lhand -32.9103 -4.92804
lfingers 7.12502
lthumb -6.12757 24.9633
rfemur -53.7816 8.71949 17.7291
rtibia 50.3528
rfoot 41.6614 6.91664
rtoes 24.8472
lfemur -50.7469 0.838046 -24.877
ltibia 42.159
lfoot -18.6655 9.98603
ltoes -21.9691
828
root 0.672938 14.8979 11.1745 102.83 22.9233 -7.16459
lowerback -13.2446 6.20882 16.7803
upperback -10.0784 6.92892 -11.1954
thorax 0.0870522 2.89216 -20.9656
lowerneck -13.9843 -0.164846 11.2651
upperneck 37.3105 -2.66385 -1.30291
head 15.3219 0.355731 -2.96429
rclavicle -2.3059e-014 -4.29872e-014
rhumerus 80.2548 -27.506 -33.2897
rradius 24.5204
rwrist 1.13698
rhand -15.5204 -3.2919
rfingers 7.12502
rthumb 10.6628 -33.0014
lclavicle -2.3059e-014 -4.29872e-014
lhumerus -498.777 -68.7278 533.002
lradius 45.704
lwrist 57.4594
lhand -32.3602 -6.51773
lfingers 7.12502
lthumb -5.59649 23.3884
rfemur -54.297 8.69794 17.6838
rtibia 49.1203
rfoot 40.6927 6.29716
rtoes 24.2434
lfemur -50.135 1.1334 -25.1296
ltibia 42.9059
lfoot -18.4248 9.06087
ltoes -21.9242
